<svg width="12" height="13" viewBox="0 0 12 13" fill="none" xmlns="http://www.w3.org/2000/svg">
<path id="Vector" d="M11.5744 2.40539C10.5844 2.30869 9.59445 2.23617 8.59833 2.18178V2.17573L8.46306 1.39005C8.37083 0.834031 8.23555 0 6.79671 0H5.18571C3.75302 0 3.61774 0.797768 3.51936 1.38401L3.39023 2.1576C2.81839 2.19386 2.24654 2.23013 1.67469 2.28452L0.420323 2.40539C0.162069 2.42957 -0.022397 2.65318 0.00219854 2.90098C0.0267941 3.14877 0.248154 3.33008 0.506407 3.3059L1.76078 3.18503C4.98279 2.87076 8.2294 2.99163 11.4883 3.31195H11.5375C11.7712 3.31195 11.9741 3.13668 11.9987 2.90098C12.0079 2.78025 11.9687 2.66076 11.8894 2.56812C11.8101 2.47548 11.697 2.41706 11.5744 2.40539ZM10.443 4.16411C10.2954 4.01302 10.0925 3.92841 9.88345 3.92841H2.11126C1.9022 3.92841 1.69314 4.01302 1.55172 4.16411C1.41029 4.3152 1.33036 4.52069 1.34265 4.73222L1.72389 10.9331C1.79152 11.8517 1.87761 13 4.02357 13H7.97115C10.1171 13 10.2032 11.8577 10.2708 10.9331L10.6521 4.73826C10.6644 4.52069 10.5844 4.3152 10.443 4.16411ZM7.01807 9.97211H4.97049C4.71839 9.97211 4.50933 9.76662 4.50933 9.51883C4.50933 9.27104 4.71839 9.06555 4.97049 9.06555H7.01807C7.27018 9.06555 7.47924 9.27104 7.47924 9.51883C7.47924 9.76662 7.27018 9.97211 7.01807 9.97211ZM7.53458 7.55463H4.46014C4.20803 7.55463 3.99897 7.34914 3.99897 7.10135C3.99897 6.85356 4.20803 6.64807 4.46014 6.64807H7.53458C7.78668 6.64807 7.99574 6.85356 7.99574 7.10135C7.99574 7.34914 7.78668 7.55463 7.53458 7.55463Z" fill="#4F4F4F"/>
</svg>
