<svg width="12" height="12" viewBox="0 0 12 12" fill="none" xmlns="http://www.w3.org/2000/svg">
<path id="Vector" d="M11.5385 12H0.461538C0.209231 12 0 11.7959 0 11.5498C0 11.3037 0.209231 11.0996 0.461538 11.0996H11.5385C11.7908 11.0996 12 11.3037 12 11.5498C12 11.7959 11.7908 12 11.5385 12ZM10.32 0.884648C9.12615 -0.279829 7.95692 -0.309841 6.73231 0.884648L5.98769 1.61095C5.92615 1.67097 5.90154 1.76701 5.92615 1.85104C6.16151 2.63879 6.59673 3.35593 7.19156 3.93613C7.78639 4.51632 8.52161 4.94084 9.32923 5.1704C9.37284 5.18433 9.41958 5.18609 9.46416 5.17549C9.50874 5.16488 9.5494 5.14233 9.58154 5.11038L10.32 4.38408C10.9292 3.79584 11.2246 3.22561 11.2246 2.64937C11.2308 2.05513 10.9354 1.47889 10.32 0.884648ZM8.22154 5.71543C8.04308 5.63139 7.87077 5.54736 7.70462 5.45132C7.56965 5.3729 7.43824 5.28878 7.31077 5.19921C7.20615 5.13319 7.08308 5.03715 6.96615 4.94111C6.92849 4.91433 6.89347 4.88419 6.86154 4.85107C6.65846 4.683 6.43077 4.46691 6.22769 4.22682C6.20923 4.21481 6.17846 4.17279 6.13539 4.11877C6.07385 4.04674 5.96923 3.92669 5.87692 3.78864C5.7892 3.67574 5.70904 3.55745 5.63692 3.43449C5.53846 3.27243 5.45231 3.11036 5.36615 2.94229C5.35334 2.91541 5.34083 2.8884 5.32862 2.86126C5.23754 2.66138 4.96985 2.60315 4.81169 2.75741L1.28615 6.19622C1.20615 6.27426 1.13231 6.42432 1.11385 6.52636L0.781538 8.8253C0.72 9.23347 0.836923 9.61762 1.09538 9.87573C1.31692 10.0858 1.62462 10.1999 1.95692 10.1999C2.03077 10.1999 2.10462 10.1939 2.17846 10.1819L4.54154 9.85772C4.65231 9.83972 4.80615 9.76768 4.88 9.68965L8.40123 6.25565C8.56123 6.09958 8.50031 5.83247 8.29292 5.74544C8.2691 5.73549 8.24531 5.72548 8.22154 5.71543Z" fill="#4F4F4F"/>
</svg>
