<?xml version="1.0" encoding="UTF-8"?>
<svg id="Layer_2" xmlns="http://www.w3.org/2000/svg" version="1.1" viewBox="0 0 193.8 58.1">
  <!-- Generator: Adobe Illustrator 29.8.2, SVG Export Plug-In . SVG Version: 2.1.1 Build 3)  -->
  <g id="Layer_1-2">
    <g>
      <path d="M50.2,27.8h-6.9l-6.7,27.3h5.7l1-4.8h6.8l.9,4.8h5.7s-6.6-27.3-6.6-27.3ZM49.1,45.4v.3c0,0-4.9,0-4.9,0,.2-1.2.2-1.4.3-1.8.6-3.4,1.6-6.8,2.2-10.2,0,0,2.5,11.7,2.4,11.6Z"/>
      <path d="M.1,46.8h5.7c-.1.8-.2,1.3-.1,2,.4,3,5.2,3,5.7.2.6-4.1-5-5.4-7.6-7.4-5.2-4.1-3.9-12.6,2.9-14,5.3-1.1,9.6,1.5,9.9,7.1,0,.5,0,.8-.1,1.5h-5.3v-.2c.3-1.3,0-3.3-1.6-3.7-2.6-.6-4.1,1.4-3,3.8.8,1.8,5.9,4,7.7,5.7,4.5,4.1,3.3,12.3-3,13.8-3.6.9-8.5,0-10.3-3.7-.2-.5-.9-1.9-.9-3v-2.1h0Z"/>
      <path d="M76.4,46.8h5.7c-.1.8-.2,1.3-.1,2,.4,3,5.2,3,5.7.2.6-4.1-5-5.4-7.6-7.4-5.2-4.1-3.9-12.6,2.9-14,5.3-1.1,9.6,1.5,9.9,7.1,0,.5,0,.8-.1,1.5h-5.3v-.2c.3-1.3,0-3.3-1.6-3.7-2.6-.6-4.1,1.4-3,3.8.8,1.8,5.9,4,7.7,5.7,4.5,4.1,3.3,12.3-3,13.8-3.6.9-8.5,0-10.3-3.7-.2-.5-.9-1.9-.9-3v-2.1h0Z"/>
      <polygon points="34.3 27.8 34.3 32.6 34.1 32.6 26.4 32.6 26.4 39.2 26.6 39.2 33.1 39.2 33.1 43.9 26.4 43.9 26.4 50.3 34.3 50.3 34.3 55.1 20.9 55.1 20.9 27.8 34.3 27.8"/>
      <polygon points="64.5 27.8 64.5 50.3 72.6 50.3 72.6 55.1 58.9 55.1 58.9 27.8 64.5 27.8"/>
      <path d="M150.9,45.3c.6-.6.7-.7,1-1,4.2-4.3,3.7-14.8-2.9-16.5-.3,0-.6-.1-1-.1h-10v27.3h5.4v-8.9h2.3l3.7,8.9h6l-4.5-9.7h0ZM148.2,40.8c-.8.8-3.6.7-4.7.7v-9.3c1.4,0,3.1-.1,4.3.6.4.2.7.6.9,1,.8,1.9.7,5.8-.5,7Z"/>
      <path d="M170.6,36.1c0,0-.2,0-.4,0,0-2.3-.7-4.6-3.4-4.4-2.6.2-2.9,3-3,5-.1,2.8-.3,7.7,0,10.4,0,.4.3,1.6.5,2,.9,1.9,4,2.2,5.5.8.1,0,.6-.6.6-.7v-4.8h-2.9v-4.5h8v9.4c0,1.2-1,2.5-1.3,3-.9,1.4-2.4,2.4-4,2.9-5.7,1.8-11.6-2.3-11.8-8.2,0-4.9,0-8.5,0-13,.8-8.9,16.3-10,17.1,0,0,.3,0,1,0,2.1h-4.9Z"/>
      <path d="M193.5,27.7v4.5s.1.1.1.2c-.1,0-.3.2-.4.2h-7.8v6.4c.1,0,.3.2.4.2h6.4v4.7h-6.5l-.2.2v6.2h8.2v4.5s.3.2,0,.4h-13.5v-27.3h13.4,0Z"/>
      <g>
        <path d="M145.1,13.6l.5-.6.5-.7h.3l4.2,2.6-.2-.4c-.4-.8-3.2-2.9-3.4-3.4-.2-.5.6-1.8.8-2.5.2-1.1.3-2.9-.2-3.9-.9-1.7-3.9-1.1-5.5-1.2-2.1-.1-3.8-.2-5.8-1.1-2.3-1-3.8-2.1-6.5-2.4-7-.6-11,2.7-13.5,8.8-2.3,5.7-3,11.7-5.2,17.5,0,.3-.4,1.2-.6,1.3h-13.9v27.3h5.7v-10.2h6.3v-4.7h-6.3v-7.6h8.2c-.3,10.6-.6,26.8,14.4,25.5,2.2-.2,4.8-1.4,6.4-2.8,7.7-7.1,3.7-24.7,3.3-34,0-1.1.4-1.2,1.3-1.6,1.1-.5,2.4-.7,3.6-1.2,1.2-.5,2.2-1.2,3.3-1.9l3.7,4.8c0-1.2-2.6-5.2-2.4-6,0-.2.1-.3.3-.5l.6-.9v-.2c.1,0,.1,0,.1,0ZM124.1,54.7c-8.3.2-9.3-5.6-9.4-12.2-.2-6.2,0-14.8,8.2-15.2,6.5-.4,9.3,3.6,9.7,9.7.4,6.6.3,17.5-8.4,17.8h0ZM133.1,10.1c-2.3,0-2.8-3.7-.4-4.2,2.8-.5,3.5,4.1.4,4.2Z"/>
        <path d="M126.6,48.9c-1.4,2.7-5.4,2-6.3-.8-.8-2.4-.8-8.8-.5-11.5.2-2.3.9-4.6,3.6-4.9,2-.2,3.2,1.1,3.8,2.9.8,2.8.8,11.7-.5,14.2h0Z"/>
      </g>
    </g>
  </g>
</svg>