<?xml version="1.0" encoding="UTF-8"?>
<svg version="1.1" xmlns="http://www.w3.org/2000/svg" width="4776" height="1592">
<path d="M0 0 C1.07803894 -0.00100708 2.15607788 -0.00201416 3.26678467 -0.00305176 C75.41648079 0.04230443 133.71253728 22.63069232 197.52929688 54.11376953 C241.56753914 75.80963932 285.88208068 88.54717545 334.75 93.4375 C335.53366943 93.51631409 336.31733887 93.59512817 337.12475586 93.67633057 C342.04976152 94.16410201 346.9775088 94.60401862 351.90969849 95.01263428 C353.87961374 95.17726129 355.84905485 95.34762331 357.81808472 95.52252197 C379.67687991 97.43785955 401.39065649 97.42638325 423.3125 97.25 C499.99535888 96.63718599 499.99535888 96.63718599 524.75 117.25 C542.53702553 134.79702068 545.90860274 161.22774085 546.07910156 185.12109375 C546.07523489 186.47656828 546.06966536 187.83203889 546.0625 189.1875 C546.06100952 189.89422852 546.05951904 190.60095703 546.0579834 191.32910156 C546.00745667 204.78882003 544.95420217 217.95988407 542.75 231.25 C542.58105225 232.35891602 542.58105225 232.35891602 542.40869141 233.49023438 C540.4525909 245.80577298 535.31379176 257.03108775 530.46316528 268.42732239 C527.8087517 274.66407805 525.28566508 280.90886485 523.0625 287.3125 C522.83127441 287.97765625 522.60004883 288.6428125 522.36181641 289.328125 C520.15361976 295.81610761 518.17164644 301.68612341 521.09765625 308.29296875 C524.21302178 313.49260141 528.70979079 317.58184666 533.01171875 321.79296875 C534.48953953 323.23975917 535.95654497 324.69682063 537.421875 326.15625 C542.69995803 331.39060926 548.11013815 336.40946358 553.75 341.25 C555.58869148 342.9107536 557.4226557 344.57676908 559.25 346.25 C563.0420521 349.70822633 566.86690399 353.11947629 570.73828125 356.48828125 C574.7828765 360.03024719 578.76545127 363.64080731 582.75 367.25 C583.70132813 368.10722656 584.65265625 368.96445312 585.6328125 369.84765625 C598.56966226 381.55222273 611.22192 393.15309162 618.75 409.25 C618.75 409.91 618.75 410.57 618.75 411.25 C615.40573471 409.99150402 612.43184679 408.56506127 609.40625 406.66796875 C608.17225464 405.89876099 608.17225464 405.89876099 606.91333008 405.11401367 C606.03443115 404.56076416 605.15553223 404.00751465 604.25 403.4375 C602.34771182 402.24991098 600.44536654 401.06241342 598.54296875 399.875 C597.57536621 399.26914062 596.60776367 398.66328125 595.61083984 398.0390625 C591.27006777 395.3245056 586.91656987 392.63065683 582.5625 389.9375 C581.71042969 389.40987061 580.85835937 388.88224121 579.98046875 388.33862305 C572.91154109 383.96289948 565.83162693 379.60513318 558.75 375.25 C551.6686695 370.89504912 544.58848221 366.53837674 537.52075195 362.16137695 C535.81342086 361.10464212 534.10494306 360.0497575 532.39526367 358.99682617 C527.94396823 356.25125167 523.52357599 353.4665268 519.1328125 350.625 C518.20057861 350.02905029 517.26834473 349.43310059 516.30786133 348.8190918 C514.53911945 347.68738012 512.77785188 346.54385733 511.02612305 345.38598633 C505.39624879 341.80650879 500.37023563 340.08772692 493.75 339.25 C493.4725293 339.8382959 493.19505859 340.4265918 492.90917969 341.03271484 C491.81625998 343.12325756 490.64144352 344.86278915 489.203125 346.7265625 C488.44140991 347.71825439 488.44140991 347.71825439 487.66430664 348.72998047 C487.11508545 349.43783691 486.56586426 350.14569336 486 350.875 C485.42435303 351.62281738 484.84870605 352.37063477 484.25561523 353.14111328 C481.27543175 357.00701422 478.27721908 360.85859677 475.26953125 364.703125 C451.38041582 390.95776466 451.38041582 390.95776466 439.34375 422.09765625 C441.71611017 440.5062587 452.62141877 457.97824221 460.80230713 474.34997559 C462.17215422 477.09637476 463.52919085 479.84905765 464.88671875 482.6015625 C469.05633263 491.02867098 473.33292738 499.38760113 477.75 507.6875 C506.93206367 562.76089632 506.93206367 562.76089632 505.75 583.25 C502.1126702 579.74234327 498.898275 576.06721984 495.8125 572.0625 C495.347229 571.46445557 494.88195801 570.86641113 494.40258789 570.25024414 C493.38966221 568.94757885 492.3782442 567.64374014 491.36816406 566.33886719 C489.67424256 564.15220569 487.9744743 561.9701927 486.2734375 559.7890625 C480.2790785 552.09959418 474.31205029 544.3900392 468.375 536.65625 C465.18372025 532.50758632 461.965787 528.37967519 458.75 524.25 C454.73534375 519.09442648 450.72898977 513.93315772 446.75 508.75 C440.45570383 500.55301626 434.09986678 492.40396006 427.75 484.25 C425.9281252 481.91050299 424.10637419 479.5709113 422.28540039 477.23071289 C421.106077 475.71596045 419.92559703 474.20210768 418.74389648 472.68920898 C416.04473428 469.2284001 413.36869442 465.75558411 410.75390625 462.23046875 C410.2959668 461.61792236 409.83802734 461.00537598 409.36621094 460.37426758 C408.14961906 458.74189289 406.94353421 457.10170203 405.73828125 455.4609375 C405.08214844 454.73132813 404.42601563 454.00171875 403.75 453.25 C399.78940316 453.25 398.27058798 454.67087432 394.9921875 456.87890625 C393.81006452 457.66724522 392.62793534 458.45557488 391.44580078 459.24389648 C390.823526 459.66259003 390.20125122 460.08128357 389.56011963 460.51266479 C386.27690413 462.71802669 382.9750553 464.89500771 379.671875 467.0703125 C378.66769028 467.73174507 378.66769028 467.73174507 377.64321899 468.40653992 C338.65314798 494.00129445 298.67535538 510.09232733 253.97067261 522.72927856 C236.93361012 527.54765997 220.28659158 532.65688321 204.0625 539.8125 C203.26013916 540.16449463 202.45777832 540.51648926 201.63110352 540.87915039 C192.97716164 544.82396979 184.50423007 549.04153244 180.94824219 558.34838867 C178.79728334 564.94804448 178.2835736 570.89805167 178.375 577.8125 C178.3913147 579.61400513 178.3913147 579.61400513 178.40795898 581.4519043 C179.5046472 648.74717598 188.12567068 716.1577918 194.66214055 783.09000981 C200.42254983 842.07624271 206.16697464 901.03756308 210 960.1875 C210.11651413 961.96977493 210.11651413 961.96977493 210.23538208 963.78805542 C210.80394434 972.60546006 211.29849429 981.42593172 211.75 990.25 C211.79274551 991.07838631 211.83549103 991.90677261 211.87953186 992.76026154 C213.42488234 1022.93194834 214.07484869 1053.04286444 214.01074219 1083.25292969 C213.9992912 1088.68826357 214.00618257 1094.12340267 214.01762104 1099.55873013 C214.06569218 1126.5146444 213.49806384 1153.34851366 211.75 1180.25 C211.64011749 1181.95975006 211.64011749 1181.95975006 211.52801514 1183.70404053 C211.11867167 1189.87305576 210.62704424 1196.03085197 210.0625 1202.1875 C209.98174225 1203.08571472 209.9009845 1203.98392944 209.81777954 1204.90936279 C201.67336532 1294.26957112 182.05404738 1388.21534013 103.73046875 1495.08203125 C101.83118692 1497.16112674 100.00811611 1499.28958212 98.1875 1501.4375 C95.33000632 1504.71348246 92.27006093 1507.55126528 88.953125 1510.35546875 C86.48242966 1512.48009152 84.1258745 1514.70745013 81.75 1516.9375 C65.84118821 1531.40005617 47.48157678 1542.97540272 28.64257812 1553.21337891 C26.86046302 1554.18949613 25.09369691 1555.19348772 23.328125 1556.19921875 C-10.91932917 1575.2987605 -50.24764125 1587.54229278 -89.25 1591.25 C-90.17506348 1591.3442627 -91.10012695 1591.43852539 -92.05322266 1591.53564453 C-105.08075746 1592.67440793 -118.18386455 1592.49391923 -131.25 1592.5 C-132.54890167 1592.50067474 -133.84780334 1592.50134949 -135.18606567 1592.50204468 C-154.05267495 1592.4864593 -172.57888197 1592.1979199 -191.25 1589.25 C-192.36568359 1589.07839355 -193.48136719 1588.90678711 -194.63085938 1588.72998047 C-246.25216396 1580.54807681 -295.84802547 1562.01496755 -336.25 1528.25 C-337.17167969 1527.51265625 -338.09335938 1526.7753125 -339.04296875 1526.015625 C-353.38409799 1514.31006451 -367.0757053 1501.03480301 -378.25 1486.25 C-378.99378906 1485.32316406 -379.73757813 1484.39632813 -380.50390625 1483.44140625 C-393.41435355 1467.1738282 -404.3977161 1449.50730128 -414.25 1431.25 C-414.9315918 1429.98978027 -414.9315918 1429.98978027 -415.62695312 1428.70410156 C-454.87072991 1355.27024298 -470.00158479 1270.00135128 -483.375 1123.8125 C-483.41370209 1123.09330383 -483.45240417 1122.37410767 -483.49227905 1121.63311768 C-484.80773883 1096.73869576 -485.40635599 1071.85306237 -485.3828125 1046.92578125 C-485.38349027 1044.31398001 -485.38446416 1041.70217884 -485.38571167 1039.09037781 C-485.38750773 1033.65944904 -485.38519945 1028.22853407 -485.38037109 1022.79760742 C-485.37556474 1017.33080141 -485.37553259 1011.86402276 -485.38037109 1006.3972168 C-485.40287488 980.25557946 -485.41750371 954.11639307 -484.8046875 927.98046875 C-484.78527225 927.1337945 -484.76585701 926.28712025 -484.74585342 925.4147892 C-484.47499984 914.00929189 -483.88314285 902.64657132 -483.25 891.25 C-556.84 891.25 -630.43 891.25 -706.25 891.25 C-706.25 959.56 -706.25 1027.87 -706.25 1098.25 C-649.49 1098.25 -592.73 1098.25 -534.25 1098.25 C-534.25 1140.49 -534.25 1182.73 -534.25 1226.25 C-539.55215016 1226.91276877 -544.18087782 1227.37428614 -549.43811035 1227.37025452 C-550.11303528 1227.37111053 -550.78796021 1227.37196655 -551.4833374 1227.37284851 C-553.72654964 1227.37448888 -555.96968534 1227.36900446 -558.21289062 1227.36352539 C-559.85588326 1227.36321873 -561.49887602 1227.3633531 -563.14186859 1227.36389065 C-567.52547825 1227.36411559 -571.90906039 1227.35833687 -576.29266357 1227.35128021 C-580.41223229 1227.34556808 -584.53179445 1227.34531616 -588.65136719 1227.34460449 C-600.68424841 1227.33936566 -612.71712456 1227.32540444 -624.75 1227.3125 C-651.645 1227.291875 -678.54 1227.27125 -706.25 1227.25 C-706.25 1319.65 -706.25 1412.05 -706.25 1507.25 C-758.06 1507.25 -809.87 1507.25 -863.25 1507.25 C-863.25 1260.08 -863.25 1012.91 -863.25 758.25 C-673.5 758.0625 -673.5 758.0625 -613.49316406 758.04223633 C-595.80733596 758.01237731 -595.80733596 758.01237731 -578.121521 757.97587585 C-570.21832076 757.95974341 -562.31525913 757.95730087 -554.41204834 757.96403503 C-545.30550491 757.97174784 -536.1991749 757.96233028 -527.09267758 757.93140606 C-522.43056525 757.91612114 -517.76880871 757.90875746 -513.10668612 757.92339098 C-508.89557444 757.93646215 -504.68516801 757.92680145 -500.47413635 757.89855957 C-498.94736462 757.89241576 -497.42053107 757.89481381 -495.89379072 757.90637147 C-493.82060216 757.92083238 -491.74984078 757.90477272 -489.67679214 757.88085651 C-488.52396122 757.87971735 -487.3711303 757.87857819 -486.18336511 757.87740451 C-483.06777538 757.49198957 -483.06777538 757.49198957 -480.95319915 754.92015094 C-478.93780038 751.76055629 -477.37970505 748.51168918 -475.93359375 745.06640625 C-475.63488876 744.36810196 -475.33618378 743.66979767 -475.02842712 742.95033264 C-471.57006654 734.78090421 -468.41151061 726.49858171 -465.3125 718.1875 C-464.99596466 717.34051544 -464.67942932 716.49353088 -464.353302 715.62088013 C-436.64605333 641.31090543 -416.82694455 564.93910437 -397.69821167 488.07974243 C-372.77880908 387.95701798 -347.37189938 286.74051519 -236.0234375 98.26953125 C-233.93006384 96.01838285 -231.91980732 93.70778197 -229.91796875 91.375 C-226.2307809 87.147552 -222.2813009 83.268587 -218.1875 79.4375 C-217.44435547 78.74172852 -216.70121094 78.04595703 -215.93554688 77.32910156 C-209.33402407 71.21605756 -202.49355945 65.58049686 -195.25 60.25 C-194.2923877 59.539646 -194.2923877 59.539646 -193.31542969 58.81494141 C-136.62780957 17.00816572 -69.70823599 0.04529017 0 0 Z M100.48828125 177.2421875 C88.35349438 191.25854806 84.70468048 206.8254676 85.55908203 224.88134766 C86.86343271 241.06396948 94.75344981 256.46030997 106.75 267.25 C118.38399085 276.03971864 132.02352587 279.5031465 146.39453125 277.82421875 C159.83715842 275.84255737 172.76864094 270.85882184 181.54296875 260.0390625 C192.3973951 245.36591473 196.00727999 229.09798659 193.4453125 211.11083984 C190.48860928 195.62208967 182.73750535 180.94880678 170 171.375 C148.66695219 157.50851893 119.18653142 159.384758 100.48828125 177.2421875 Z M-293.22363281 814.03271484 C-303.5031749 825.28076318 -311.76008722 838.02629922 -319.25 851.25 C-319.71148438 852.06452637 -320.17296875 852.87905273 -320.6484375 853.71826172 C-350.46763077 907.02418837 -360.37072175 969.53708069 -364.9375 1029.6875 C-364.99843842 1030.48374786 -365.05937683 1031.27999573 -365.12216187 1032.10037231 C-367.05516041 1057.78201869 -367.45458386 1083.4459521 -367.4375 1109.1875 C-367.43738041 1109.98820923 -367.43726082 1110.78891846 -367.4371376 1111.6138916 C-367.42107429 1196.97192791 -367.34033327 1287.77879222 -296.4609375 1434.8515625 C-294.76394341 1436.69247128 -293.17270352 1438.53680561 -291.625 1440.5 C-259.24594697 1477.99153509 -204.34745684 1492.43316729 -157.25 1497.25 C-156.31937744 1497.34571289 -155.38875488 1497.44142578 -154.42993164 1497.54003906 C-143.99005427 1498.47834164 -133.53641344 1498.49346896 -123.0625 1498.5 C-121.59993271 1498.50101212 -121.59993271 1498.50101212 -120.1078186 1498.50204468 C-104.63588103 1498.48507792 -89.5242954 1497.94191073 -74.25 1495.25 C-72.78626953 1494.99259033 -72.78626953 1494.99259033 -71.29296875 1494.72998047 C-30.99861858 1487.34312302 3.23242804 1469.38864889 32.75 1441.25 C33.47832031 1440.56292969 34.20664063 1439.87585937 34.95703125 1439.16796875 C49.4238706 1425.1576766 60.90245126 1407.72896786 70.75 1390.25 C71.13865234 1389.5684082 71.52730469 1388.88681641 71.92773438 1388.18457031 C105.08895375 1329.52498982 116.28794639 1259.45915835 121.5 1193.125 C121.58874893 1191.99550934 121.58874893 1191.99550934 121.67929077 1190.84320068 C123.14238424 1171.86553411 123.91009058 1152.90822325 123.91796875 1133.875 C123.92120433 1131.97257465 123.92456984 1130.07014952 123.92805481 1128.16772461 C123.93398702 1124.19791085 123.93590143 1120.22811864 123.93530273 1116.25830078 C123.93522242 1112.29568828 123.94202261 1108.33319374 123.95581055 1104.37060547 C124.2289515 1024.55511736 123.40586609 938.20284074 86.75 865.25 C86.37633301 864.49847656 86.00266602 863.74695313 85.61767578 862.97265625 C80.93828556 853.63383056 75.83958684 844.75664828 69.75 836.25 C69.02941406 835.24324219 68.30882813 834.23648438 67.56640625 833.19921875 C63.28478528 827.35929552 58.7718144 821.86586111 53.859375 816.546875 C51.97100188 814.49064649 50.17019417 812.38713592 48.375 810.25 C34.63745942 794.60359842 16.97249152 782.98780151 -1.25 773.25 C-1.93078613 772.88422852 -2.61157227 772.51845703 -3.31298828 772.14160156 C-81.49847526 730.90983943 -202.6013903 735.91799098 -293.22363281 814.03271484 Z " fill="#FFFFFF" transform="translate(2975.25,-0.25)"/>
<path d="M0 0 C297.33563455 0 297.33563455 0 315.25 6.125 C316.13204102 6.4250293 317.01408203 6.72505859 317.92285156 7.03417969 C333.83949346 12.61268119 348.23841326 20.28573477 362 30 C362.58523438 30.40879395 363.17046875 30.81758789 363.7734375 31.23876953 C379.9644279 42.72448651 394.71313334 57.68985752 406 74 C406.76570313 75.04800781 407.53140625 76.09601563 408.3203125 77.17578125 C434.41998862 113.69628468 447.04694483 158.0556291 453 202 C453.13132324 202.95229492 453.26264648 203.90458984 453.39794922 204.88574219 C461.63280119 268.01575742 450.93400144 336.89891726 423 394 C422.62294922 394.77859375 422.24589844 395.5571875 421.85742188 396.359375 C413.32316676 413.8033347 402.8058979 430.37241402 390 445 C389.37851074 445.71309326 388.75702148 446.42618652 388.11669922 447.16088867 C381.35968221 454.78831507 374.16547923 461.94763286 366.9375 469.125 C365.67749898 470.37997204 364.41773176 471.63517886 363.15820312 472.890625 C360.10815147 475.92979084 357.0549738 478.96578227 354 482 C358.36885016 492.12924749 362.89383889 502.16700892 367.62133789 512.13378906 C369.38007967 515.8420775 371.13102667 519.55404686 372.8828125 523.265625 C373.41041168 524.38281921 373.41041168 524.38281921 373.94866943 525.52258301 C377.16322792 532.33422065 380.33675649 539.164371 383.5 546 C388.29334388 556.35242632 393.13553981 566.68085422 398 577 C403.97716532 589.6805979 409.90558734 602.38259775 415.80078125 615.1015625 C419.12839621 622.28053631 422.46720603 629.45425212 425.8125 636.625 C426.09964874 637.24054749 426.38679749 637.85609497 426.68264771 638.49029541 C431.79099819 649.43739759 436.93582241 660.36718689 442.08505249 671.29510498 C447.1526013 682.0517159 452.18936909 692.82185653 457.1809082 703.61401367 C459.7321193 709.12774137 462.29465704 714.63554747 464.88986206 720.12869263 C466.19586524 722.89310682 467.49812819 725.65927732 468.80047607 728.42541504 C469.42710146 729.75326312 470.05568322 731.08018996 470.68634033 732.40612793 C471.56144871 734.24628002 472.42931415 736.08987127 473.296875 737.93359375 C473.79541992 738.98603271 474.29396484 740.03847168 474.80761719 741.12280273 C476 744 476 744 477 749 C422.55 749 368.1 749 312 749 C297.19281643 714.82957638 297.19281643 714.82957638 290.92965698 699.53921509 C288.92586094 694.64842447 286.91159989 689.76194093 284.8984375 684.875 C284.48969894 683.88228592 284.08096039 682.88957184 283.65983582 681.86677551 C279.45678104 671.66620335 275.20309415 661.48704933 270.9375 651.3125 C270.56847565 650.43212067 270.19945129 649.55174133 269.81924438 648.64468384 C267.95812043 644.2050648 266.09621217 639.76577531 264.23388672 635.32666016 C260.85974103 627.28277804 257.49291772 619.2358306 254.12545776 611.18914795 C253.00186021 608.50444475 251.87804606 605.81983232 250.75415039 603.13525391 C247.3597304 595.02720474 243.96582166 586.91894285 240.57394409 578.80982971 C230.41629075 554.52560184 220.22315087 530.25674887 210 506 C179.805 505.505 179.805 505.505 149 505 C149 585.52 149 666.04 149 749 C99.83 749 50.66 749 0 749 C0 501.83 0 254.66 0 0 Z M149 125 C149 209.15 149 293.3 149 380 C217.35488673 383.67090475 217.35488673 383.67090475 279 359 C306.24349484 328.08911162 307.58911032 274.06942344 305.46875 235.640625 C303.4416665 205.00321391 299.25092013 168.62135084 275.84765625 146.34765625 C248.12900412 123.49592795 208.6961542 123.83422461 174.75 123.8125 C173.81532898 123.81141235 172.88065796 123.81032471 171.91766357 123.8092041 C169.23148559 123.80955852 166.54551732 123.81870591 163.859375 123.83203125 C162.65152847 123.83385155 162.65152847 123.83385155 161.41928101 123.83570862 C160.66184601 123.84198776 159.90441101 123.84826691 159.12402344 123.85473633 C158.1424527 123.86045403 158.1424527 123.86045403 157.14105225 123.86628723 C154.40650877 124.03706465 151.70259208 124.54956799 149 125 Z " fill="#FFFFFF" transform="translate(3248,758)"/>
<path d="M0 0 C0.5249707 0.38510742 1.04994141 0.77021484 1.59082031 1.16699219 C9.0922144 6.70844382 16.23442789 12.57320469 23 19 C23.52706543 19.4945166 24.05413086 19.9890332 24.59716797 20.49853516 C37.61553896 32.7814889 48.11287536 46.4662023 57 62 C57.65484375 63.134375 58.3096875 64.26875 58.984375 65.4375 C84.96628654 111.58278546 84 159.73209261 84 212 C36.15 212 -11.7 212 -61 212 C-61.66 201.44 -62.32 190.88 -63 180 C-66.3264883 152.72279593 -74.3112504 124.00304266 -96.75 106.1875 C-115.38809675 92.94900434 -138.10539533 89.28076353 -160.45483398 92.82055664 C-181.70757575 96.75392333 -198.52678703 107.34480503 -211 125 C-227.62452756 150.06032817 -232.1169332 181.16048644 -234.515625 210.52734375 C-234.61190248 211.68987734 -234.61190248 211.68987734 -234.71012497 212.87589645 C-236.10372607 229.85492532 -236.89793952 246.84212181 -237.53839111 263.86383057 C-237.65334756 266.86509293 -237.77662447 269.8659886 -237.8999548 272.86691666 C-239.50003643 311.90531503 -240.20871627 350.92970071 -240.1875 390 C-240.18738041 390.98437168 -240.18726082 391.96874336 -240.1871376 392.98294449 C-240.18238739 424.02368384 -240.00272968 455.0117219 -238 486 C-237.9271579 487.17532288 -237.9271579 487.17532288 -237.85284424 488.37438965 C-236.7481416 506.09881225 -234.51673065 523.1730658 -229.7421875 540.32714844 C-229.05636592 542.79700854 -228.41307068 545.27370418 -227.78125 547.7578125 C-223.61072534 563.64602953 -217.01252321 576.6821361 -205 588 C-204.22011719 588.73734375 -203.44023437 589.4746875 -202.63671875 590.234375 C-191.48308069 599.90710986 -177.17197551 605.45184392 -163 609 C-162.2771582 609.18546387 -161.55431641 609.37092773 -160.80957031 609.56201172 C-153.39900378 611.26641161 -146.08020584 611.38600522 -138.5 611.375 C-137.83836853 611.37412384 -137.17673706 611.37324768 -136.49505615 611.37234497 C-111.77696203 611.26457668 -89.39549951 604.0181757 -71.25 586.6875 C-70.59897812 585.96113342 -69.94795624 585.23476685 -69.27720642 584.48638916 C-67 582 -67 582 -64.65480042 579.95819092 C-55.1525434 570.25895792 -56.73840232 557.39753388 -56.86323357 544.65576935 C-56.87058989 543.9550874 -56.87794622 543.25440546 -56.88552547 542.53249073 C-56.91388383 538.92095651 -56.8909183 535.30973362 -56.87367249 531.69818115 C-56.84875787 524.87712289 -56.86920934 518.05700553 -56.90644604 511.23603415 C-56.95416612 502.00639599 -56.93082387 492.77694526 -56.9117136 483.54724884 C-56.88350962 469.03097864 -56.94939799 454.516705 -57 440 C-83.4 440 -109.8 440 -137 440 C-137 398.75 -137 357.5 -137 315 C-27.605 314.505 -27.605 314.505 84 314 C84.12099405 379.89694311 84.12099405 379.89694311 84.14648438 407.46679688 C84.15235742 413.77661157 84.1584187 420.08642603 84.16479492 426.39624023 C84.16598179 427.58238254 84.16598179 427.58238254 84.16719264 428.79248732 C84.18021746 441.53539363 84.2038561 454.27825906 84.23145839 467.02114118 C84.25957743 480.11240472 84.27618996 493.20364696 84.28226548 506.29493946 C84.28636849 514.36385829 84.29929676 522.43266158 84.3237494 530.50154483 C84.34157918 536.70338556 84.3433493 542.9051394 84.33932304 549.10700226 C84.34014469 551.64048661 84.34606258 554.17397556 84.35761642 556.7074337 C84.41299718 569.48352859 84.37796713 581.60735087 81 594 C80.79326251 594.78444772 80.58652502 595.56889544 80.37352276 596.3771143 C74.42794659 617.1388829 62.22552285 635.47797069 50 653 C49.52111328 653.69270996 49.04222656 654.38541992 48.54882812 655.09912109 C15.16699697 703.31866748 -34.93332518 732.90707399 -92.29663086 743.75878906 C-94.85961116 744.21247031 -97.4259838 744.61362079 -100 745 C-101.143479 745.17732666 -102.28695801 745.35465332 -103.46508789 745.53735352 C-114.51151777 747.09972073 -125.41688743 747.35926149 -136.5625 747.3125 C-137.48819794 747.31034485 -138.41389587 747.3081897 -139.36764526 747.30596924 C-153.42718957 747.25349976 -167.18343338 746.83248452 -181 744 C-182.49490967 743.69400879 -182.49490967 743.69400879 -184.02001953 743.38183594 C-206.01180832 738.72953143 -226.79136589 731.8356522 -247 722 C-247.73702148 721.64180176 -248.47404297 721.28360352 -249.23339844 720.91455078 C-269.41057607 710.97157984 -287.91945865 697.89816901 -304.30078125 682.51171875 C-306.48804586 680.47639148 -308.70817803 678.53878948 -311 676.625 C-327.20172939 662.46101389 -339.86103 644.25769791 -351 626 C-351.59506348 625.02861084 -351.59506348 625.02861084 -352.20214844 624.03759766 C-375.41745827 585.69244424 -385.17150156 540.99725711 -385.14044189 496.54951477 C-385.14303288 495.04129546 -385.14604805 493.53307684 -385.1494453 492.02485913 C-385.157432 487.92019217 -385.15930015 483.81554277 -385.16004276 479.71086895 C-385.16190791 475.26830596 -385.16946221 470.82575178 -385.17617798 466.38319397 C-385.18970055 456.68884281 -385.19577597 446.99449582 -385.20018864 437.3001368 C-385.20296034 431.23773566 -385.20719924 425.1753361 -385.21169281 419.11293602 C-385.22387557 402.29968141 -385.23417811 385.48642806 -385.2375679 368.67316914 C-385.23778747 367.59929479 -385.23800703 366.52542044 -385.23823325 365.41900445 C-385.23845153 364.34270062 -385.23866981 363.26639678 -385.2388947 362.15747768 C-385.23933815 359.97681129 -385.23978472 357.7961449 -385.24023438 355.61547852 C-385.2404558 354.53381443 -385.24067723 353.45215034 -385.24090537 352.33770856 C-385.24485277 334.81419538 -385.26230948 317.29072379 -385.2855939 299.76722667 C-385.30935331 281.73960223 -385.32177177 263.71199864 -385.32293582 245.6843583 C-385.32384979 235.57710415 -385.32953212 225.46990429 -385.34775543 215.36266518 C-385.36321825 206.75682279 -385.36824047 198.15105148 -385.36001733 189.54519782 C-385.35613314 185.16204137 -385.35693023 180.77902779 -385.37107468 176.39588928 C-385.43341797 155.9034371 -385.23091069 136.10987985 -379.1875 116.3125 C-378.92598145 115.4364209 -378.66446289 114.5603418 -378.39501953 113.65771484 C-377.61770569 111.09794801 -376.81556652 108.54780712 -376 106 C-375.78005371 105.30342285 -375.56010742 104.6068457 -375.33349609 103.88916016 C-369.58832037 86.10520974 -360.35918064 68.81817925 -349 54 C-348.33484375 53.12601563 -347.6696875 52.25203125 -346.984375 51.3515625 C-342.26823985 45.31713761 -337.24140747 39.58186143 -332 34 C-331.50790039 33.47390137 -331.01580078 32.94780273 -330.50878906 32.40576172 C-321.4609522 22.81217352 -311.72314645 14.6608389 -301 7 C-300.37512695 6.55172852 -299.75025391 6.10345703 -299.10644531 5.64160156 C-220.94184603 -49.8422435 -107.02312244 -57.73115558 0 0 Z " fill="#FFFFFF" transform="translate(4192,779)"/>
<path d="M0 0 C0.73636733 0.00291284 1.47273467 0.00582568 2.23141617 0.00882679 C3.00814554 0.00797237 3.78487491 0.00711794 4.58514154 0.00623763 C7.2077701 0.00458047 9.83033578 0.01010802 12.45295852 0.01555592 C14.32500339 0.01583777 16.19704837 0.01568011 18.06909317 0.01511341 C23.16805449 0.01482534 28.2669925 0.02072362 33.36594838 0.02768737 C38.68844321 0.03391931 44.01093851 0.03452458 49.33343643 0.03571278 C59.41987579 0.03882657 69.50630438 0.04704059 79.59273899 0.05706227 C91.07259067 0.06822193 102.55244287 0.07373348 114.03229862 0.0787577 C137.65421403 0.08922317 161.27611985 0.10682353 184.89802688 0.12908131 C186.90791596 5.90419496 188.62654383 11.66616939 190.0291304 17.61663014 C190.22248254 18.42228035 190.41583467 19.22793057 190.61504596 20.05799443 C191.25609616 22.73315139 191.89148885 25.40961895 192.52693313 28.08611256 C192.98850994 30.01690018 193.45046483 31.94759745 193.91276687 33.87821156 C194.90830636 38.03881502 195.90141307 42.19998877 196.89262527 46.36162525 C198.48677346 53.05429556 200.08651152 59.74562178 201.68733352 66.4366985 C202.24018295 68.74770116 202.79302407 71.05870582 203.34585708 73.36971241 C203.76117659 75.10584734 203.76117659 75.10584734 204.1848864 76.8770557 C205.03857783 80.44659431 205.89173713 84.01625972 206.74475235 87.58595997 C212.20969186 110.45306673 217.71089281 133.31138653 223.21855301 156.16823536 C225.94497965 167.48301097 228.66948675 178.79824889 231.39412063 190.11345631 C231.66450968 191.23630213 231.93489872 192.35914795 232.21348137 193.5160194 C238.28235137 218.71860593 244.34073574 243.92370984 250.39802688 269.12908131 C258.88982295 304.46439223 267.39030126 339.79760242 275.89802688 375.12908131 C284.66492272 411.53686043 293.42352445 447.94662163 302.1740889 484.35832936 C309.59365173 515.23145878 317.01926692 546.10312262 324.45280021 576.97289139 C326.33958179 584.80867257 328.22523532 592.64472466 330.11042923 600.48088795 C331.18277582 604.9378575 332.25521392 609.39480503 333.32771438 613.85173756 C333.59327511 614.95535193 333.85883583 616.0589663 334.13244385 617.19602352 C337.84012609 632.60245674 341.55955577 648.00601578 345.28675979 663.40773731 C347.35254441 671.94476464 349.41450337 680.48271459 351.47542328 689.02091748 C353.15423385 695.97473947 354.8379277 702.92735493 356.52527183 709.87911087 C357.56009883 714.14771258 358.59021008 718.41744166 359.61897033 722.68750912 C360.09704586 724.66758533 360.57710001 726.647185 361.05925506 728.62627178 C361.7166457 731.32576305 362.36703659 734.02684775 363.01570266 736.72844654 C363.3051828 737.90609577 363.3051828 737.90609577 363.60051101 739.1075359 C364.51950175 742.96834189 364.89802688 746.1095139 364.89802688 750.12908131 C313.08802688 750.12908131 261.27802688 750.12908131 207.89802688 750.12908131 C203.93802688 728.72033131 199.97802688 707.31158131 195.89802688 685.25408131 C194.64505813 678.48537525 193.39208938 671.7166692 192.10115188 664.74285084 C190.57771438 656.49993092 190.57771438 656.49993092 189.86580032 652.64540821 C189.36645619 649.94370593 188.8665364 647.242116 188.36580032 644.54067189 C187.60896716 640.45738208 186.85495253 636.37357655 186.10115188 632.28972584 C185.87631119 631.07903494 185.65147049 629.86834404 185.41981643 628.62096554 C185.21829971 627.52666163 185.01678299 626.43235771 184.8091597 625.30489308 C184.63217544 624.34807196 184.45519119 623.39125084 184.27284378 622.40543514 C183.89802688 620.12908131 183.89802688 620.12908131 183.89802688 618.12908131 C122.51802688 618.12908131 61.13802688 618.12908131 -2.10197312 618.12908131 C-4.57697312 630.50408131 -4.57697312 630.50408131 -7.10197312 643.12908131 C-7.97711418 647.3171082 -8.8565955 651.50132512 -9.76505905 655.68181568 C-9.98851502 656.71773854 -10.21197098 657.75366139 -10.44219834 658.82097584 C-11.15487753 662.12203885 -11.87039812 665.42247628 -12.58634812 668.72283131 C-13.0925374 671.06123674 -13.5986599 673.39965664 -14.1047197 675.7380901 C-15.15204478 680.57510566 -16.20095406 685.41177439 -17.2508989 690.24822193 C-18.59872692 696.45802383 -19.94120009 702.66897076 -21.28241974 708.88020283 C-22.31956987 713.67948682 -23.36009122 718.4780351 -24.40160233 723.2763744 C-24.89880062 725.56955895 -25.39479241 727.86300543 -25.88956314 730.15671498 C-26.57500376 733.33252623 -27.2651093 736.50728775 -27.9564653 739.68181568 C-28.16008179 740.63012257 -28.36369828 741.57842945 -28.57348496 742.55547291 C-28.76115937 743.41261891 -28.94883377 744.2697649 -29.14219528 745.15288502 C-29.30438931 745.90117321 -29.46658333 746.64946141 -29.63369232 747.420425 C-30.10197312 749.12908131 -30.10197312 749.12908131 -31.10197312 750.12908131 C-33.12691934 750.22584545 -35.15529853 750.25095117 -37.18255478 750.24933583 C-37.82452693 750.25019025 -38.46649907 750.25104468 -39.12792492 750.25192499 C-41.29451366 750.25358152 -43.46102619 750.24805564 -45.62760788 750.2426067 C-47.17453373 750.24232484 -48.7214597 750.24248254 -50.26838547 750.2430492 C-54.48101344 750.24333722 -58.69361318 750.2374398 -62.90623456 750.23047525 C-67.30383099 750.22424243 -71.701428 750.22363797 -76.09902817 750.22244984 C-84.43237824 750.21933631 -92.76571527 750.21112263 -101.09905958 750.20110035 C-110.58378566 750.18993988 -120.06851234 750.18442893 -129.55324334 750.17940491 C-149.06949401 750.16894004 -168.58573252 750.15134018 -188.10197312 750.12908131 C-185.31834023 736.43016759 -182.15658104 722.85349977 -178.79728562 709.28533131 C-178.28051417 707.18734756 -177.76407447 705.08928208 -177.24793869 702.99114186 C-176.14981321 698.52914813 -175.04995078 694.06758798 -173.9486528 689.60637623 C-170.99420007 677.63678754 -168.05224647 665.66412244 -165.10978562 653.69158131 C-164.81139031 652.47783329 -164.512995 651.26408528 -164.20555741 650.01355702 C-158.66591915 627.47722797 -153.19670957 604.92439118 -147.76068741 582.36287647 C-139.35223889 547.46614492 -130.83592622 512.59684375 -122.26872116 477.73876148 C-114.48108218 446.05110733 -106.7489958 414.35096147 -99.10197312 382.62908131 C-91.09669924 349.42227613 -82.99989623 316.23867122 -74.85197312 283.06658131 C-74.28978496 280.77763157 -73.72760031 278.48868097 -73.16541916 276.1997295 C-72.88835286 275.07164844 -72.61128657 273.94356737 -72.32582432 272.78130203 C-70.95294445 267.19152034 -69.58014298 261.6017194 -68.20744187 256.01189381 C-67.94060026 254.92532049 -67.67375866 253.83874718 -67.39883095 252.7192474 C-62.63008487 233.29916579 -57.88555432 213.87330199 -53.16447312 194.44158131 C-52.99416455 193.74065861 -52.82385597 193.03973591 -52.64838654 192.31757313 C-51.04498848 185.71841775 -49.44214776 179.11912708 -47.83984238 172.51970631 C-42.85360957 151.98354892 -37.85856172 131.44953431 -32.86395794 110.91541153 C-31.38889356 104.85099542 -29.9139605 98.78654744 -28.43940598 92.72200733 C-27.87714022 90.40953779 -27.31487419 88.0970683 -26.75260788 85.78459889 C-26.47695653 84.65089265 -26.20130518 83.51718642 -25.91730076 82.34912544 C-23.76709963 73.50663684 -21.61407254 64.66483796 -19.46041256 55.82319123 C-17.85993538 49.25009612 -16.26476587 42.67573653 -14.67332798 36.10044724 C-13.6442232 31.85071596 -12.61236517 27.60165617 -11.57996804 23.35272366 C-11.09539266 21.35549301 -10.61207414 19.35795697 -10.13006645 17.3601051 C-9.47214087 14.63362407 -8.80992573 11.90822017 -8.14665085 9.18303639 C-7.95271933 8.37452292 -7.75878781 7.56600945 -7.55897957 6.73299557 C-5.91620989 0.01774453 -5.91620989 0.01774453 0 0 Z M87.89802688 170.12908131 C87.71852493 171.13318043 87.53902298 172.13727955 87.35408157 173.17180592 C78.75880942 221.04844755 68.3389492 268.47947866 57.46052688 315.87908131 C45.86221281 366.42359048 34.33620747 416.93951873 25.89802688 468.12908131 C25.7548201 468.98675099 25.61161331 469.84442066 25.46406692 470.72808033 C25.03294398 473.31661187 24.6089309 475.90621017 24.18708938 478.49626881 C24.05692428 479.27583943 23.92675918 480.05541004 23.79264969 480.85860401 C23.67483139 481.5935207 23.55701309 482.32843739 23.43562454 483.08562428 C23.33142196 483.72370014 23.22721939 484.36177601 23.11985916 485.01918751 C22.83708922 487.70867233 22.89802688 490.42477226 22.89802688 493.12908131 C67.11802688 493.12908131 111.33802688 493.12908131 156.89802688 493.12908131 C156.28384069 488.21559173 155.66565679 483.61762978 154.65763992 478.81626087 C154.28113627 477.01115386 154.28113627 477.01115386 153.89702648 475.16958004 C153.61926327 473.85422842 153.34143696 472.53889011 153.06355423 471.22356373 C152.76799164 469.81276249 152.47271229 468.40190188 152.17769092 466.99098736 C151.37047848 463.1346897 150.55922272 459.27925239 149.74727648 455.42394906 C148.87464253 451.2769547 148.00579171 447.12916761 147.13644546 442.98148304 C145.24610422 433.96610821 143.35105336 424.95172741 141.4551062 415.9375301 C140.27556042 410.3292421 139.09705156 404.72073656 137.91880935 399.11217457 C137.62597455 397.71828243 137.62597455 397.71828243 137.3272239 396.29623085 C136.93125505 394.41141848 136.53528763 392.52660581 136.13932163 390.64179283 C133.50894483 378.12146574 130.8776727 365.60132751 128.24417251 353.08165699 C123.84960298 332.18848065 119.46421399 311.29342851 115.09541076 290.39484841 C112.20413291 276.56419335 109.30764972 262.73463677 106.4066214 248.90602356 C104.70086408 240.7740246 102.99804753 232.64143163 101.30226272 224.50734669 C99.86706523 217.62322571 98.42620673 210.74032192 96.97768509 203.85899162 C96.24242609 200.36514513 95.51001642 196.87076292 94.78506798 193.37476116 C94.00434852 189.61008811 93.21057543 185.84824046 92.41536087 182.08660084 C92.18758642 180.97762534 91.95981197 179.86864985 91.72513527 178.72606903 C91.51220644 177.72953214 91.29927761 176.73299525 91.07989639 175.70626026 C90.89859397 174.84005621 90.71729154 173.97385216 90.53049511 173.0813995 C90.32178059 172.4371345 90.11306608 171.79286949 89.89802688 171.12908131 C88.90802688 170.63408131 88.90802688 170.63408131 87.89802688 170.12908131 Z " fill="#FFFFFF" transform="translate(1197.1019731163979,756.8709186911583)"/>
<path d="M0 0 C56.4871929 -1.12195508 113.4097805 12.22358913 155.33398438 52.06201172 C156.74470282 53.27728427 158.16092156 54.48621776 159.58398438 55.68701172 C171.31633189 65.94687837 180.66396341 79.60496525 188.33398438 93.06201172 C188.72054199 93.7287793 189.10709961 94.39554688 189.50537109 95.08251953 C209.58507578 130.04876451 217.60800771 170.4334051 217.77148438 210.43701172 C217.78088043 211.5046727 217.78088043 211.5046727 217.79046631 212.59390259 C217.79435364 213.28825409 217.79824097 213.98260559 217.80224609 214.69799805 C217.80610321 215.29888748 217.80996033 215.89977692 217.81393433 216.51887512 C217.61719902 226.35039495 216.11516496 233.96865507 214.33398438 244.06201172 C166.15398437 244.06201172 117.97398437 244.06201172 68.33398438 244.06201172 C69.33398437 234.06201172 69.33398437 234.06201172 69.88085938 230.67919922 C73.21327444 204.07733411 68.87897212 175.61516433 52.58398438 153.81201172 C41.59313224 140.67711078 25.82637877 135.79003411 9.33398438 134.06201172 C-11.07713294 132.4097744 -30.6660276 137.71955567 -46.66210938 150.67919922 C-58.71097386 161.89618219 -64.86272184 178.36710106 -65.88476562 194.51904297 C-66.477845 218.11865982 -58.68278128 241.14796381 -42.33349609 258.35229492 C-40.79082549 259.93596123 -39.23338596 261.50281541 -37.66601562 263.06201172 C-36.83585938 263.89216797 -36.00570312 264.72232422 -35.15039062 265.57763672 C-20.31399273 279.66754918 -2.79218441 290.99249657 14.33398438 302.06201172 C15.0996875 302.55733398 15.86539063 303.05265625 16.65429688 303.56298828 C30.75596726 312.64677334 45.14468356 321.27169336 59.49707031 329.9508667 C109.51651799 360.20751359 109.51651799 360.20751359 122.33398438 369.06201172 C122.98318848 369.50899414 123.63239258 369.95597656 124.30126953 370.41650391 C177.86281403 407.39164065 213.79370555 459.64428759 225.79785156 523.94628906 C234.05726961 571.94569393 228.59523726 620.70761356 208.33398438 665.06201172 C208.02235352 665.75246582 207.71072266 666.44291992 207.38964844 667.15429688 C202.18326464 678.55600193 195.58857937 688.86016282 188.33398438 699.06201172 C187.90811035 699.66722656 187.48223633 700.27244141 187.04345703 700.89599609 C175.60098659 716.94565075 160.69061924 732.05580576 144.33398438 743.06201172 C143.6667334 743.51946777 142.99948242 743.97692383 142.31201172 744.44824219 C84.29693575 783.87256532 8.28023914 791.25667531 -59.51757812 778.84716797 C-103.73842678 770.22826844 -142.97808584 752.11794501 -175.66601562 721.06201172 C-176.68888672 720.13582031 -176.68888672 720.13582031 -177.73242188 719.19091797 C-208.4073893 690.43713849 -225.84246036 643.82689858 -231.66601562 603.06201172 C-231.66601562 580.62201172 -231.66601562 558.18201172 -231.66601562 535.06201172 C-179.85601562 535.06201172 -128.04601562 535.06201172 -74.66601562 535.06201172 C-75.65601563 542.65201172 -76.64601562 550.24201172 -77.66601562 558.06201172 C-77.93986852 563.24794672 -78.14904701 568.26599837 -78.10351562 573.43701172 C-78.09449219 574.70939697 -78.08546875 575.98178223 -78.07617188 577.29272461 C-77.72167773 596.59173075 -72.71798075 613.78464562 -58.99804688 627.92529297 C-39.40839794 645.87426779 -15.41467518 649.9733786 10.17382812 649.24560547 C16.91024703 648.85424368 22.97163239 647.29723526 29.33398438 645.06201172 C30.40519531 644.68818359 31.47640625 644.31435547 32.58007812 643.92919922 C49.24212444 637.51908713 62.46919322 626.79750094 70.20898438 610.49951172 C79.62405066 588.00074986 78.29276563 562.98879075 69.77148438 540.46826172 C47.22662407 487.04674491 -14.03188753 459.01388908 -62.35351562 433.99951172 C-73.11708251 428.4257547 -83.66688045 422.50640887 -94.18212891 416.47949219 C-96.34547777 415.24493317 -98.5159107 414.02536385 -100.69335938 412.81591797 C-119.37222603 402.37340196 -136.23147424 389.8760932 -151.66601562 375.06201172 C-152.22820801 374.52705078 -152.79040039 373.99208984 -153.36962891 373.44091797 C-195.61295357 333.05149576 -218.94354258 276.43911461 -220.88867188 218.31982422 C-222.08954957 161.81315521 -202.87944888 107.02899448 -163.66601562 66.06201172 C-163.14555664 65.50900391 -162.62509766 64.95599609 -162.08886719 64.38623047 C-122.17456398 22.109993 -63.63996781 2.8732699 -6.55664062 0.15185547 C-4.37109031 0.10138593 -2.18554183 0.05083586 0 0 Z " fill="#FFFFFF" transform="translate(231.666015625,742.93798828125)"/>
<path d="M0 0 C121.77 0 243.54 0 369 0 C369 43.56 369 87.12 369 132 C365.75681208 133.62159396 362.19814593 133.13280624 358.63522339 133.12025452 C357.75963433 133.12110894 356.88404528 133.12196337 355.98192322 133.12284368 C353.03073437 133.1244985 350.07960163 133.11897706 347.12841797 133.11352539 C345.0197754 133.11324349 342.91113274 133.1134013 340.80249023 133.1139679 C335.06311375 133.11425577 329.323758 133.10836063 323.58438635 133.10139394 C317.59191333 133.09515876 311.59943988 133.09455647 305.60696411 133.09336853 C294.252667 133.0902557 282.89837946 133.08204296 271.54408658 133.07201904 C256.20575252 133.05877073 240.86741586 133.05335761 225.52907753 133.04751682 C201.35271117 133.03810304 177.17636504 133.01818379 153 133 C153 192.07 153 251.14 153 312 C213.72 312 274.44 312 337 312 C337 354.57 337 397.14 337 441 C276.28 441 215.56 441 153 441 C153 498.75 153 556.5 153 616 C224.28 616 295.56 616 369 616 C369 659.89 369 703.78 369 749 C247.23 749 125.46 749 0 749 C0 501.83 0 254.66 0 0 Z " fill="#FFFFFF" transform="translate(551,758)"/>
<path d="M0 0 C121.77 0 243.54 0 369 0 C369.33 40.26 369.66 80.52 370 122 C370.99 123.32 371.98 124.64 373 126 C373 126.66 373 127.32 373 128 C363.73298065 134.8298845 353.15166101 133.67010879 342.22021484 133.56762695 C340.1103926 133.56621517 338.00056789 133.56701101 335.89074707 133.56983948 C330.18469246 133.57126993 324.47916687 133.54193978 318.77323484 133.50696969 C312.80218937 133.47564453 306.83113083 133.47277058 300.86001587 133.46684265 C289.56253878 133.45132235 278.26530455 133.41031823 266.96793425 133.3600952 C251.69499542 133.29367712 236.42198985 133.26675257 221.14894295 133.23758411 C197.09911351 133.19061525 173.04979648 133.09099049 149 133 C149 190.42 149 247.84 149 307 C150.65 307.33 152.3 307.66 154 308 C154.77948092 308.50740125 155.55896185 309.01480249 156.36206341 309.53757954 C159.80218472 311.44471552 162.28303104 311.38458194 166.20698547 311.39872742 C166.92179571 311.40537424 167.63660594 311.41202107 168.37307709 311.41886932 C170.76229156 311.43748477 173.1510046 311.43489509 175.5402832 311.43237305 C177.25529181 311.44139112 178.97029397 311.45171845 180.68528748 311.46325684 C185.33775258 311.49084773 189.99009545 311.5001142 194.64263177 311.50611091 C199.5060411 311.51548912 204.36935894 311.54169207 209.23271179 311.56611633 C218.44067865 311.60980021 227.64862776 311.63833559 236.85666674 311.66143972 C249.30053084 311.69353744 261.74428924 311.74901301 274.18807316 311.80318546 C293.79201738 311.88791192 313.39592007 311.94138382 333 312 C333 354.57 333 397.14 333 441 C320.12484375 441.02578125 307.2496875 441.0515625 293.984375 441.078125 C285.84503671 441.10328076 277.70572231 441.12943985 269.56640625 441.16015625 C256.63720852 441.20876103 243.7080903 441.25317907 230.77880859 441.27099609 C221.36353949 441.28398952 211.94843139 441.31089494 202.53325295 441.35461307 C197.54645115 441.37727994 192.55984831 441.39290756 187.57299042 441.39188385 C182.88123843 441.39114032 178.18992713 441.40896716 173.49828911 441.44116783 C171.77455338 441.44970139 170.05076843 441.45139344 168.32702065 441.44580269 C165.97634482 441.4391929 163.6270836 441.45700857 161.27655029 441.48101807 C159.96022991 441.48470524 158.64390953 441.48839241 157.28770065 441.49219131 C153.98464152 441.76839591 153.98464152 441.76839591 151.57765198 443.59900665 C149.44378276 446.84649461 149.49245518 449.05769258 149.48101807 452.93487549 C149.47352036 453.63081818 149.46602264 454.32676086 149.45829773 455.04379272 C149.43795855 457.38268594 149.44616401 459.72061429 149.45410156 462.05957031 C149.44530445 463.76215946 149.43475848 465.46474032 149.42260361 467.16730881 C149.39486957 471.72939394 149.39109235 476.29120579 149.39224243 480.85336304 C149.38970184 485.13329353 149.36560322 489.41299615 149.34326172 493.69287109 C149.29049173 506.21184144 149.27236606 518.73093841 149.25 531.25 C149.1675 559.2175 149.085 587.185 149 616 C222.92 616 296.84 616 373 616 C373.375 676.8125 373.375 676.8125 373.47802734 696.03051758 C373.5179257 701.7040121 373.5179257 701.7040121 373.56045532 707.37748718 C373.57816747 709.9089992 373.59196089 712.44054044 373.60269165 714.97209167 C373.61967884 718.80158864 373.64901008 722.63080942 373.68115234 726.46020508 C373.68332449 727.59235097 373.68549664 728.72449686 373.6877346 729.8909502 C373.69888613 730.91945937 373.71003765 731.94796854 373.7215271 733.00764465 C373.72705786 733.90454923 373.73258862 734.8014538 373.73828697 735.7255373 C373.85703112 738.27949371 373.85703112 738.27949371 376 741 C375.875 743.5 375.875 743.5 375 746 C274.99680005 821.00239996 125.00399994 749 0 749 C0 501.83 0 254.66 0 0 Z " fill="#FFFFFF" transform="translate(4400,758)"/>
<path d="M0 0 C51.81 0 103.62 0 157 0 C157 203.28 157 406.56 157 616 C229.6 616 302.2 616 377 616 C377 659.89 377 703.78 377 749 C252.59 749 128.18 749 0 749 C0 501.83 0 254.66 0 0 Z " fill="#FFFFFF" transform="translate(1652,758)"/>
<path d="M0 0 C18.90578728 16.10794807 30.78344322 38.00141906 37.375 61.75 C37.67784912 62.83837158 37.67784912 62.83837158 37.98681641 63.94873047 C61.20420377 150.24936985 56.14905607 251.67776672 19.39404297 456.02832031 C16.83634053 460.34957513 13.7698556 464.06868442 10.375 467.75 C9.56417969 468.65234375 8.75335937 469.5546875 7.91796875 470.484375 C-7.37940631 486.70004051 -28.15088638 496.28138271 -50.55859375 496.953125 C-80.1136675 497.37679599 -106.35657206 488.74052517 -128.18164062 468.29150391 C-167.71927294 429.57001538 -166.35775659 360.44877909 -169.625 308.75 C-169.69315918 307.68958496 -169.76131836 306.62916992 -169.83154297 305.53662109 C-170.19956514 299.61004449 -170.43985376 293.68491404 -170.625 287.75 C-170.64584656 287.10790588 -170.66669312 286.46581177 -170.68817139 285.80426025 C-176.39623418 109.67047079 -176.39623418 109.67047079 -132.625 11.75 C-132.17125 11.15445313 -131.7175 10.55890625 -131.25 9.9453125 C-117.80208405 -7.42491226 -95.19823845 -15.25949223 -74.3125 -18.5 C-47.40860947 -21.6140061 -21.73768098 -17.07307342 0 0 Z " fill="#FFFFFF" transform="translate(2914.625,889.25)"/>
</svg>
